<?xml version="1.0" ?><svg style="enable-background:new 0 0 512 512;" version="1.1" viewBox="0 0 512 512" xml:space="preserve" xmlns="http://www.w3.org/2000/svg" xmlns:xlink="http://www.w3.org/1999/xlink"><style type="text/css">
	.st0{display:none;}
	.st1{display:inline;}
	.st2{fill:none;stroke:#B3B3B3;stroke-miterlimit:10;}
	.st3{fill:none;stroke:#ED1C24;stroke-miterlimit:10;}
</style><g class="st0" id="Layer_31"><g class="st1"><g><g><ellipse class="st2" cx="256" cy="256" rx="248.1" ry="248.3"/><path class="st2" d="M398.8,504.5H113.2c-18.8,0-34.1-15.3-34.1-34.1V41.6c0-18.8,15.3-34.1,34.1-34.1h285.5      c18.8,0,34.1,15.3,34.1,34.1v428.9C432.9,489.3,417.6,504.5,398.8,504.5z"/><path class="st2" d="M7.9,399.8V112.2c0-16.4,13.3-29.8,29.8-29.8h436.7c16.4,0,29.8,13.3,29.8,29.8v287.6      c0,16.4-13.3,29.8-29.8,29.8H37.6C21.2,429.6,7.9,416.2,7.9,399.8z"/><path class="st2" d="M440.4,469.9H71.6c-16.4,0-29.8-13.3-29.8-29.8V71.9c0-16.4,13.3-29.8,29.8-29.8h368.8      c16.4,0,29.8,13.3,29.8,29.8v368.2C470.2,456.5,456.8,469.9,440.4,469.9z"/></g><rect class="st3" height="497" transform="matrix(-1.836970e-16 1 -1 -1.836970e-16 512 5.684342e-14)" width="497" x="7.5" y="7.5"/></g></g></g><g id="_x33_0_no_parking_sign"/><g id="_x32_9_paid_parking"/><g id="_x32_8_traffic_cone"/><g id="_x32_7_valet_parking_sign"/><g id="_x32_6_parking_ticket"/><g id="_x32_5_parking_gate"/><g id="_x32_4_limited_time_parking"/><g id="_x32_3_reserve_parking_disabilities"/><g id="_x32_2_mobile_parking"/><g id="_x32_1_ticket_parking__machine"/><g id="_x32_0_stop_sign"/><g id="_x31_9_car_lock"/><g id="_x31_8_mobile_parking"/><g id="_x31_7_parking_sign"/><g id="_x31_6_car_key"/><g id="_x31_5__x0A_tow_truck"/><g id="_x31_4_parking_lock"/><g id="_x31_3_parking_ticket"/><g id="_x31_2_parking_gate"/><g id="_x31_1_parking_machine"/><g id="_x31_0_garage_parking"/><g id="_x30_9_parking_map"/><g id="_x30_8_car_sign"/><g id="_x30_7_sparking_sign"/><g id="_x30_6_no_parking_sign"/><g id="_x30_5_no_car_sign"/><g id="_x30_4_valet_parking"/><g id="_x30_3_cctv"/><g id="_x30_2_valet_parking_attendant"/><g id="_x30_1_parking_attendant"/><g id="Layer_32"><g><path d="M256,0C114.6,0,0,114.6,0,256c0,141.4,114.6,256,256,256c141.4,0,256-114.6,256-256C512,114.6,397.4,0,256,0z M256,480.7    C131.9,480.7,31.3,380.1,31.3,256C31.3,131.9,131.9,31.3,256,31.3c124.1,0,224.7,100.6,224.7,224.7    C480.7,380.1,380.1,480.7,256,480.7z"/><g><path d="M256,56.9C146,56.9,56.9,146,56.9,256c0,110,89.2,199.1,199.1,199.1S455.1,366,455.1,256C455.1,146,366,56.9,256,56.9z      M252.3,424l-87.5-135.1l87.5,46.4V424z M252.3,317.2l-80.6-42.7l80.6-34.7V317.2z M252.3,227.1l-89.4,38.5l89.4-163.7V227.1z      M260.8,239.7l80.9,34.8l-80.9,42.9V239.7z M260.8,424.5v-89l87.9-46.6L260.8,424.5z M260.8,227V101.3l89.8,164.3L260.8,227z"/></g></g></g></svg>