<?xml version="1.0" ?><svg style="enable-background:new 0 0 512 512;" version="1.1" viewBox="0 0 512 512" xml:space="preserve" xmlns="http://www.w3.org/2000/svg" xmlns:xlink="http://www.w3.org/1999/xlink"><style type="text/css">
	.st0{display:none;}
	.st1{display:inline;}
	.st2{fill:none;stroke:#B3B3B3;stroke-miterlimit:10;}
	.st3{fill:none;stroke:#ED1C24;stroke-miterlimit:10;}
</style><g class="st0" id="Layer_31"><g class="st1"><g><g><ellipse class="st2" cx="256" cy="256" rx="248.1" ry="248.3"/><path class="st2" d="M398.8,504.5H113.2c-18.8,0-34.1-15.3-34.1-34.1V41.6c0-18.8,15.3-34.1,34.1-34.1h285.5      c18.8,0,34.1,15.3,34.1,34.1v428.9C432.9,489.3,417.6,504.5,398.8,504.5z"/><path class="st2" d="M7.9,399.8V112.2c0-16.4,13.3-29.8,29.8-29.8h436.7c16.4,0,29.8,13.3,29.8,29.8v287.6      c0,16.4-13.3,29.8-29.8,29.8H37.6C21.2,429.6,7.9,416.2,7.9,399.8z"/><path class="st2" d="M440.4,469.9H71.6c-16.4,0-29.8-13.3-29.8-29.8V71.9c0-16.4,13.3-29.8,29.8-29.8h368.8      c16.4,0,29.8,13.3,29.8,29.8v368.2C470.2,456.5,456.8,469.9,440.4,469.9z"/></g><rect class="st3" height="497" transform="matrix(-1.836970e-16 1 -1 -1.836970e-16 512 5.684342e-14)" width="497" x="7.5" y="7.5"/></g></g></g><g id="_x33_0_no_parking_sign"/><g id="_x32_9_paid_parking"/><g id="_x32_8_traffic_cone"/><g id="_x32_7_valet_parking_sign"/><g id="_x32_6_parking_ticket"/><g id="_x32_5_parking_gate"/><g id="_x32_4_limited_time_parking"/><g id="_x32_3_reserve_parking_disabilities"/><g id="_x32_2_mobile_parking"/><g id="_x32_1_ticket_parking__machine"/><g id="_x32_0_stop_sign"/><g id="_x31_9_car_lock"/><g id="_x31_8_mobile_parking"/><g id="_x31_7_parking_sign"/><g id="_x31_6_car_key"/><g id="_x31_5__x0A_tow_truck"/><g id="_x31_4_parking_lock"/><g id="_x31_3_parking_ticket"/><g id="_x31_2_parking_gate"/><g id="_x31_1_parking_machine"/><g id="_x31_0_garage_parking"/><g id="_x30_9_parking_map"/><g id="_x30_8_car_sign"/><g id="_x30_7_sparking_sign"/><g id="_x30_6_no_parking_sign"/><g id="_x30_5_no_car_sign"/><g id="_x30_4_valet_parking"/><g id="_x30_3_cctv"/><g id="_x30_2_valet_parking_attendant"/><g id="_x30_1_parking_attendant"/><g id="Layer_32"><g><path d="M256,0C114.6,0,0,114.6,0,256c0,141.4,114.6,256,256,256c141.4,0,256-114.6,256-256C512,114.6,397.4,0,256,0z M256,480.7    C131.9,480.7,31.3,380.1,31.3,256C31.3,131.9,131.9,31.3,256,31.3c124.1,0,224.7,100.6,224.7,224.7    C480.7,380.1,380.1,480.7,256,480.7z"/><g><path d="M256,56.9C146,56.9,56.9,146,56.9,256c0,110,89.2,199.1,199.1,199.1S455.1,366,455.1,256C455.1,146,366,56.9,256,56.9z      M295.6,401.3c-29.7-3.9-53.5-28-57.1-57.8c-2.1-17.7,2.7-34.2,12.1-47.2c4.5-6.1,4.4-14.5,0.3-20.9l-3.1-4.9l-6.4-0.2     c-7.8-0.2-14.7,4.4-17.9,11.4c-10.6,22.8-33.6,38.7-60.4,38.7c-37.8,0-68.3-31.6-66.5-69.8c1.6-34.1,29.8-62,63.9-63.3     c28.2-1.1,52.7,15.5,63.4,39.5c3.1,7,10,11.6,17.6,11.3l6.1-0.3l2.4-4c4-6.5,4-15-0.7-21.1c-10.6-14-15.8-32.4-12.4-51.9     c4.9-27.8,27.7-49.9,55.7-53.9c42.2-6.1,78.5,27.8,76.4,69.3c-1.4,27.1-19.9,50.7-45.6,59.6c-9.2,3.2-18,4.1-26.4,3.3     c-7.5-0.7-14.8,2.9-18.3,9.7L276,254l2.6,4.8c3.7,6.8,11.1,11.1,18.8,10.3c6.9-0.8,14-0.5,21.4,1.1c27.8,6,49.1,29.6,52.1,57.9     C375.3,371,338.7,407,295.6,401.3z"/></g></g></g></svg>